PathFileType	4	(X/Y/Z)	E:\Qualisys_Data\Carbon_Farble_Plate\Data\Amateur_Runner\S2\T2\S2T2V13_c3d.trc
DataRate	CameraRate	NumFrames	NumMarkers	Units	OrigDataRate	OrigDataStartFrame	OrigNumFrames
200.000000	200.000000	4	39	mm	200.000000	40	325
Frame#	Time	LSHO			RSHO			LICST			RICST			LASIS			LHEEL			RASIS			LTROC			RTROC			SACR			LTH1			LSK4			LTH2			LTH3			RHM5			LSK2			LTH4			RTH1			LTOE			RTH2			RTH3			RTH4			LLEP			RLEP			LSK1			LSK3			RSK1			LHM5			RSK2			LFT1			RSK3			RSK4			LLME			RLME			RTOE			RHEEL			RFT1			RFT2			LFT2			
		X1	Y1	Z1	X2	Y2	Z2	X3	Y3	Z3	X4	Y4	Z4	X5	Y5	Z5	X6	Y6	Z6	X7	Y7	Z7	X8	Y8	Z8	X9	Y9	Z9	X10	Y10	Z10	X11	Y11	Z11	X12	Y12	Z12	X13	Y13	Z13	X14	Y14	Z14	X15	Y15	Z15	X16	Y16	Z16	X17	Y17	Z17	X18	Y18	Z18	X19	Y19	Z19	X20	Y20	Z20	X21	Y21	Z21	X22	Y22	Z22	X23	Y23	Z23	X24	Y24	Z24	X25	Y25	Z25	X26	Y26	Z26	X27	Y27	Z27	X28	Y28	Z28	X29	Y29	Z29	X30	Y30	Z30	X31	Y31	Z31	X32	Y32	Z32	X33	Y33	Z33	X34	Y34	Z34	X35	Y35	Z35	X36	Y36	Z36	X37	Y37	Z37	X38	Y38	Z38	X39	Y39	Z39	

41	0.2	-1719.396728515625	1420.715087890625	-400.89404296875	-1724.950317382812	1386.12744140625	-82.45863342285156	-1794.130126953125	952.3018798828124	-410.391357421875	-1794.608642578125	941.9895629882812	-104.0190048217773	-1736.662231445312	903.19189453125	-393.3953857421875	-2068.53759765625	414.348388671875	-303.2601013183594	-1730.437377929688	902.2907104492188	-130.0669250488281	-1861.055908203125	820.317626953125	-408.0149841308594	-1872.199340820312	841.0380249023438	-104.7338333129883	-1881.623779296875	992.1133422851562	-259.2113342285156	-1671.691284179688	622.9369506835938	-426.5557556152344	-1889.065551757812	443.7620544433594	-396.8706665039062	-1751.531982421875	597.9617309570312	-427.5516662597656	-1641.208618164062	525.7860717773438	-411.218017578125	-1841.55712890625	71.41602325439453	-137.7279815673828	-1793.968994140625	467.2187805175781	-415.1495361328125	-1723.640502929688	502.6714172363281	-407.1241760253906	-1706.727172851562	597.1224975585938	-105.2652130126953	-2028.60888671875	173.9132232666016	-350.3742980957031	-1783.379760742188	586.8624267578125	-104.5729293823242	-1693.713134765625	499.3785400390625	-130.4968414306641	-1774.225830078125	493.2299194335938	-127.2450866699219	-1676.53271484375	462.1092834472656	-411.1676330566406	-1739.082275390625	450.4761352539062	-127.4777603149414	-1775.396484375	391.8439636230469	-407.5057067871094	-1871.718383789062	367.5673828125	-395.4680786132812	-1751.420043945312	327.2736511230469	-136.7290802001953	-2062.817138671875	229.4308319091797	-399.0351867675781	-1819.888427734375	368.0811462402344	-119.4519348144531	-2094.208740234375	399.2041320800781	-280.7138671875	-1805.98095703125	241.7332153320312	-151.3401184082031	-1872.072143554688	282.9734802246094	-134.6466674804688	-2049.616455078125	364.0177612304688	-369.3521423339844	-1938.95166015625	115.9315643310547	-173.2450714111328	-1766.517333984375	71.05794525146484	-196.4219207763672	-2007.41943359375	112.9311599731445	-232.8531341552734	-1996.067993164062	77.71946716308594	-257.4642944335938	-2013.536010742188	84.99632263183594	-204.9063262939453	-2103.864990234375	407.9019775390625	-333.254638671875
42	0.205	-1705.798583984375	1423.469848632812	-400.885498046875	-1707.13134765625	1388.880126953125	-82.84654235839844	-1778.7294921875	954.9840087890624	-410.3844909667969	-1777.909790039062	943.73828125	-104.6325759887695	-1721.219970703125	906.0972900390624	-393.0956115722656	-2048.3388671875	409.6751098632812	-305.4891967773438	-1714.697875976562	903.2178344726562	-130.4373168945312	-1844.745849609375	823.2593994140625	-408.6459045410156	-1856.635375976562	843.0965576171875	-104.5403442382812	-1865.514404296875	994.28564453125	-258.5643310546875	-1652.2626953125	628.001220703125	-426.5025939941406	-1868.354736328125	446.1493530273438	-396.6998291015625	-1731.825805664062	601.3184204101562	-427.0597839355469	-1619.614135742188	531.67138671875	-410.0518493652344	-1841.572021484375	72.32437896728516	-137.7917175292969	-1771.21337890625	469.1221313476562	-413.9530029296875	-1701.925659179688	506.4815979003906	-405.8610534667969	-1697.96240234375	595.3024291992188	-105.0772476196289	-1995.435546875	169.7766571044922	-348.66943359375	-1775.470336914062	587.7002563476562	-104.1218566894531	-1688.44873046875	497.7152404785156	-130.6917419433594	-1768.54052734375	493.6678466796875	-127.4437484741211	-1653.9873046875	467.2869262695312	-409.7578735351562	-1733.354248046875	450.4697570800781	-127.6277084350586	-1750.705444335938	393.7967529296875	-406.6116943359375	-1846.048950195312	367.3108825683594	-394.7884826660156	-1747.704467773438	327.9758605957031	-136.8986511230469	-2031.651611328125	223.6562194824219	-398.4084167480469	-1815.765258789062	368.9328918457031	-119.3896865844727	-2070.76806640625	391.7203674316406	-281.1386108398438	-1802.656494140625	242.9300537109375	-151.323486328125	-1868.05126953125	284.8987121582031	-133.9076843261719	-2024.6962890625	358.7590942382812	-370.0859680175781	-1938.341186523438	117.499885559082	-174.0126953125	-1766.761474609375	70.83045959472656	-196.9482116699219	-2006.689208984375	113.589469909668	-233.2505798339844	-1996.240356445312	78.39759826660156	-257.355712890625	-2013.28662109375	86.03726959228516	-205.1802520751953	-2080.580322265625	400.2392578125	-333.9999694824219
43	0.21	-1692.658203125	1426.413940429688	-401.7446594238281	-1688.844848632812	1391.998046875	-83.51496887207031	-1762.749389648438	957.6235961914062	-410.9146728515625	-1760.582763671875	947.0169067382812	-105.0437545776367	-1705.785034179688	908.9574584960938	-393.5138854980469	-2026.3994140625	402.9696960449219	-305.8668212890625	-1697.456298828125	905.4517211914062	-130.36328125	-1828.71484375	826.5429077148438	-409.5932006835938	-1841.125732421875	845.5733642578125	-105.4263229370117	-1849.855102539062	997.761474609375	-258.5888366699219	-1633.236206054688	633.5254516601562	-425.7789001464844	-1846.026000976562	445.3695678710938	-397.1592407226562	-1712.404296875	605.4334716796875	-426.4757995605469	-1598.774536132812	537.8546752929688	-409.2136535644531	-1841.272583007812	72.18921661376953	-137.9449920654297	-1749.129028320312	471.0879821777344	-413.08837890625	-1680.684692382812	511.5	-404.3720703125	-1689.836669921875	594.5485229492188	-104.6305923461914	-1963.475463867188	165.1186828613281	-349.0154113769531	-1765.674194335938	589.430419921875	-103.6761322021484	-1683.032958984375	496.765869140625	-131.4392547607422	-1761.354248046875	495.0935668945312	-126.1661071777344	-1632.046264648438	473.1015930175781	-408.8953857421875	-1728.235595703125	451.7353820800781	-127.6814804077148	-1725.143432617188	395.3572387695312	-405.1659851074219	-1820.9912109375	367.0289916992188	-393.8301086425781	-1745.000610351562	328.5155334472656	-136.6949768066406	-2001.098388671875	216.46533203125	-399.4747314453125	-1812.171142578125	370.457275390625	-119.1217041015625	-2047.5185546875	382.866943359375	-281.2943725585938	-1800.59375	243.8851470947266	-151.2257537841797	-1865.5966796875	287.0476379394531	-134.1041870117188	-1999.264526367188	352.321533203125	-369.9792785644531	-1937.380004882812	120.0039138793945	-174.2672882080078	-1766.356811523438	70.64496612548828	-196.7003936767578	-2005.720947265625	115.9404907226562	-233.9834747314453	-1994.769287109375	80.0381088256836	-257.8385925292969	-2012.350463867188	88.65681457519531	-205.2794494628906	-2056.33544921875	391.2158508300781	-334.6146240234375
44	0.215	-1679.710571289062	1429.83642578125	-402.2174377441406	-1671.337036132812	1395.47705078125	-84.04548645019531	-1747.73681640625	960.8011474609376	-410.7596130371094	-1743.463989257812	949.9046020507812	-104.9284591674805	-1690.1240234375	912.5653686523438	-393.8905334472656	-2002.134033203125	393.8568725585938	-304.7544250488281	-1680.474487304688	907.3816528320312	-130.5745239257812	-1812.126220703125	830.343994140625	-410.7887573242188	-1825.269653320312	848.34326171875	-105.5743713378906	-1832.90966796875	1000.544067382812	-257.4105834960938	-1614.425659179688	639.4496459960938	-425.5418395996094	-1818.473999023438	439.2581481933594	-395.3509521484375	-1692.630126953125	609.7357788085938	-425.8223876953125	-1578.370361328125	544.447509765625	-408.1518859863281	-1841.427001953125	72.57634735107422	-138.5175476074219	-1727.52587890625	473.2952880859375	-412.3641662597656	-1660.042846679688	517.0732421875	-404.2424011230469	-1680.6005859375	595.3516845703125	-104.4372634887695	-1928.031005859375	160.9415435791016	-347.8339233398438	-1757.55322265625	591.7310791015625	-104.0276184082031	-1676.256103515625	497.5361938476562	-131.3215484619141	-1756.640258789062	497.2795104980469	-126.8135070800781	-1609.774658203125	479.0344543457031	-407.0433654785156	-1721.763671875	453.3087158203125	-127.6019515991211	-1701.075317382812	397.8350830078125	-403.4428405761719	-1796.677978515625	366.8525695800781	-393.5638732910156	-1740.7431640625	329.9523620605469	-136.0823364257812	-1969.908447265625	210.7133331298828	-398.7218017578125	-1808.666259765625	372.6532287597656	-119.6334381103516	-2024.759155273438	374.7769165039062	-281.9576416015625	-1797.35595703125	245.659912109375	-151.6627349853516	-1862.660034179688	289.6814575195312	-134.1180877685547	-1973.860717773438	346.1182556152344	-369.5013732910156	-1936.087524414062	122.6366348266602	-173.7451171875	-1766.312255859375	70.2119369506836	-197.0142059326172	-2004.828247070312	117.7286071777344	-234.2365570068359	-1993.710815429688	81.67764282226562	-259.1769714355469	-2012.008666992188	91.03402709960938	-205.8028869628906	-2036.48681640625	384.4779968261719	-334.9376831054688
